<svg width="1080" height="1080" xmlns:xlink="http://www.w3.org/1999/xlink" xmlns="http://www.w3.org/2000/svg">
    <defs>
        <clipPath id="d">
            <use xlink:href="#a" clip-rule="evenodd"/>
        </clipPath>
        <clipPath id="e">
            <use xlink:href="#b"/>
        </clipPath>
        <clipPath id="f">
            <use xlink:href="#c"/>
        </clipPath>
        <path d="M0 0h770.083v770.085H0V0z" id="b"/>
        <path d="M0 0h534.859v534.859H0V0z" id="c"/>
        <path id="a" d="M0 0h1080v1080H0z"/>
    </defs>
    <g clip-path="url(#d)">
        <!--<use xlink:href="#a" fill="#FFF"/>-->
        <path d="M109.004 540.179c0-238.035 192.965-431 431-431s431 192.965 431 431-192.965 431-431 431-431-192.965-431-431z"
              fill="#D6FFE2" fill-rule="evenodd"/>
        <path d="M61.917 202.115H832V972.2H61.917V202.115z" fill="none"/>
        <g clip-path="url(#e)" transform="translate(61.917 202.115)">
            <g fill="#0F421E" fill-rule="evenodd">
                <path d="M168.55 410.597h601.533v53.068H168.55v-53.068zM523.132 501.336c-30.573 14.852-137.175 53.3-137.175 53.3l-126.012-7.895s72.078-20.047 100.02-26.321c27.99-6.253 15.816-37.813.34-37.813-15.474 0-150.335 5.569-150.335 5.569l-89.55 32.244 23.7 150.007s18.436-31.563 36.826-31.563c18.46 0 178.35 4.254 200.053 0 21.716-4.302 153.98-94.78 169.82-105.333 15.768-10.504 3.005-47.07-27.687-32.195zM0 536.543V730.99l137.2-25.688-34.324-186.86L0 536.544z"/>
            </g>
        </g>
        <g>
            <path d="M297.141 211.568h534.86v534.86H297.14v-534.86z" fill="none"/>
            <g clip-path="url(#f)" fill-rule="evenodd" transform="translate(297.141 211.568)">
                <path d="M194.921 404.735l-.467-.22c-4.503-2.116-8.966-4.267-11.938-5.752l-1.206-.603-.067-1.346c-1.19-23.328-10.699-35.83-18.338-45.873-3.525-4.643-6.854-9.026-8.879-13.9l-.75-1.805 1.657-1.038c27.172-17.035 53.28-18.398 84.586-18.41l2.72-.002-.44 2.685c-2.544 15.556-10.958 31.326-19.094 46.576-7.135 13.355-13.873 25.968-16.22 37.83l-.37 1.86h-11.194v-.002z"
                      fill="#A86439"/>
                <path d="M239.52 318.094c-2.471 15.11-10.766 30.705-18.853 45.862-7.195 13.47-14.046 26.327-16.449 38.468h-8.78c-4.272-2.009-8.814-4.193-11.887-5.73-1.223-24.016-10.915-36.782-18.805-47.154-3.571-4.702-6.69-8.827-8.584-13.39 26.313-16.495 51.313-18.043 83.358-18.056z"
                      fill="#389152"/>
                <path d="M445.137 404.734l-35.271-26.454a6.34 6.34 0 00-2.153-1.05c-38.121-10.297-50.422-57.982-50.929-60.007a6.029 6.029 0 00-.316-.973l-.662-1.581 1.32-1.092c15.622-12.91 27.276-27.706 34.635-43.98l.439-.971 1.024-.297c4.232-1.226 10.446-3.404 16.024-6.82l2.459-1.508.935 2.729c3.915 11.433 5.751 36.763 5.542 55.875a6.367 6.367 0 001.46 4.119c13.838 16.758 23.402 35.7 31.84 52.412 4.884 9.662 9.496 18.79 14.332 26.001l2.415 3.597h-23.094z"
                      fill="#A86439"/>
                <path d="M463.895 402.424h-17.987l-34.656-25.992a8.676 8.676 0 00-2.934-1.431c-37.163-10.04-49.177-57.876-49.293-58.338a8.204 8.204 0 00-.427-1.306c12.765-10.548 26.466-25.346 35.268-44.81 4.39-1.272 10.802-3.525 16.588-7.07 3.65 10.661 5.64 34.991 5.418 55.102a8.665 8.665 0 001.987 5.614c13.631 16.507 23.161 35.35 31.56 51.984 5.015 9.924 9.601 18.98 14.476 26.247z"
                      fill="#389152"/>
                <g>
                    <path d="M283.21 404.735a9.405 9.405 0 01-6.665-2.75 9.357 9.357 0 01-2.763-6.666V374.12a6.258 6.258 0 00-.986-3.385c-37.727-59.535-2.14-101.543-.605-103.303 2.312-2.624 2.064-6.643-.546-8.965a6.362 6.362 0 00-8.97.546c-.461.52-11.312 12.89-16.775 33.801a93.865 93.865 0 00-1.803 8.598l-.403 2.49-2.446-.62a6.253 6.253 0 00-1.547-.207c-42.876 0-76.24 2.773-115.203 38.655-22.925 21.102-59.29 35.278-78.871 35.278a6.36 6.36 0 00-6.354 6.353v21.371H31.45l-15.334-38.319 15.518-15.518a6.419 6.419 0 001.586-2.64c13.297-43.432 55.32-160.665 89.613-181.235 13.559-8.14 52.867-19.49 86.077-19.49 7.554 0 14.386.6 20.306 1.785 8.829 1.767 17.168 2.663 24.782 2.663 20.165 0 32.847-5.98 45.113-11.764 10.577-4.98 19.682-9.266 33.007-9.266 10.32 0 17.79 4.965 25.017 9.766 6.493 4.303 13.154 8.718 21.19 8.718 10.078 0 17.216-2.642 23.514-4.975 3.14-1.156 6.385-2.35 9.968-3.169l2.457-.56.347 2.497c.96 6.932 4.42 12.287 4.566 12.511a6.372 6.372 0 005.402 2.961 6.249 6.249 0 003.39-.993c2.957-1.898 3.825-5.824 1.945-8.757-1.202-1.947-3.926-7.843-2.376-12.09.985-2.675 3.747-4.767 8.212-6.221 1.04-.34 1.965-.506 2.826-.506 1.945 0 3.14.871 3.869 1.525 2.892 2.583 4.122 7.606 3.664 9.795-.865 3.484 1.21 6.944 4.608 7.797a6.327 6.327 0 006.779-2.592l1.122-1.651 1.797.869c32.79 15.857 34.005 30.377 34.809 39.985.128 1.453.24 2.731.423 3.985.3 2 1.218 8.1 21.313 19.993l1.59.94-5.138 15.896-1.263.303c-4.13.987-11.461 2.164-22.924 2.164-7.191 0-20.572 0-29.912 8.628l-.664.613h-34.462c-7.488 0-13.994-5.333-15.47-12.68l-3.834-19.178a6.36 6.36 0 00-7.473-4.982 6.306 6.306 0 00-4.043 2.709 6.291 6.291 0 00-.937 4.757l3.837 19.192c1.28 6.407 4.789 12.235 9.875 16.41l2.127 1.747-2.088 1.793c-4.048 3.475-12.267 7.121-19.987 8.864a6.396 6.396 0 00-4.526 3.835c-16.441 40.854-59.458 60.407-61.281 61.22-2.121.916-3.577 2.881-3.821 5.14l-8.615 77.518h-24.738v.01h-.002z"
                          fill="#C97743"/>
                    <path d="M515.787 211.829l-4.17 12.903c-3.766.9-10.928 2.102-22.388 2.102-7.22 0-21.475 0-31.48 9.242h-33.558c-6.388 0-11.944-4.55-13.205-10.824l-3.834-19.177c-.937-4.69-5.5-7.727-10.188-6.793-4.691.936-7.74 5.5-6.792 10.189l3.834 19.187c1.432 7.162 5.314 13.343 10.674 17.744-3.592 3.085-11.367 6.643-18.991 8.364a8.7 8.7 0 00-6.157 5.221c-16.3 40.503-59.666 59.793-60.082 59.978a8.636 8.636 0 00-5.175 7.001l-8.386 75.457H283.21a7.098 7.098 0 01-7.115-7.104V374.12c0-1.64-.461-3.245-1.351-4.631-36.771-58.025-2.381-98.736-.81-100.538 3.155-3.581 2.82-9.033-.75-12.21-3.581-3.165-9.057-2.841-12.234.74-.472.531-11.69 13.342-17.281 34.748a96.696 96.696 0 00-1.848 8.814 8.618 8.618 0 00-2.115-.276c-43.4 0-77.191 2.818-116.768 39.265-22.527 20.736-58.165 34.667-77.306 34.667-4.782 0-8.664 3.882-8.664 8.664v19.061h-3.95l-14.187-35.452 14.44-14.44a8.696 8.696 0 002.16-3.593c13.227-43.203 54.93-159.742 88.592-179.934 16.843-10.108 71.367-24.098 104.743-17.42 36.26 7.254 54.895-1.526 71.333-9.277 10.305-4.85 19.2-9.046 32.023-9.046 9.612 0 16.473 4.552 23.739 9.38 6.747 4.471 13.712 9.103 22.469 9.103 10.454 0 17.824-2.715 24.317-5.118 3.294-1.213 6.342-2.322 9.68-3.085.983 7.082 4.356 12.593 4.923 13.459a8.698 8.698 0 007.335 4.008 8.545 8.545 0 004.644-1.363c4.03-2.588 5.222-7.915 2.633-11.946-1.19-1.93-3.292-6.919-2.147-10.05.899-2.448 4.169-3.973 6.757-4.816s3.65-.163 4.436.543c2.368 2.114 3.21 6.33 2.946 7.6a8.678 8.678 0 006.307 10.513 8.658 8.658 0 009.255-3.535c31.559 15.26 32.738 28.846 33.512 38.097.126 1.432.242 2.773.439 4.124.388 2.614 1.359 9.188 22.419 21.653z"
                          fill="#3A9555"/>
                </g>
                <path d="M530.342 200.172c3.65 1.988 5.372 6.308 4.1 10.27l-7.704 23.868a8.652 8.652 0 01-4.517 5.163c-1.652.786-10.974 4.69-32.993 4.69-6.065 0-16.22 0-20.933 5.962a8.646 8.646 0 01-6.792 3.28H424.93c7.543 16.197 8.283 49.826 8.283 62.22 13.816 17.397 23.682 36.92 31.676 52.746 8.468 16.738 17.224 34.054 24.34 34.054h9.242c4.782 0 8.664 3.882 8.664 8.665a8.66 8.66 0 01-8.664 8.664h-55.45a8.62 8.62 0 01-5.198-1.733l-35.684-26.754c-37.833-11.217-53.683-50.403-58.373-65.061a150.404 150.404 0 01-12.8 7.44l-7.647 68.78h8.802c4.782 0 8.664 3.882 8.664 8.665a8.66 8.66 0 01-8.664 8.664h-48.912c-6.526 0-12.672-2.541-17.281-7.15-4.621-4.62-7.162-10.755-7.162-17.281v-18.715c-5.395-8.826-9.346-17.34-12.153-25.437-3.35 7.243-7.094 14.255-10.662 20.944-5.833 10.94-11.425 21.429-13.932 30.31h17.686c4.783 0 8.665 3.883 8.665 8.666a8.66 8.66 0 01-8.665 8.664h-46.207a8.558 8.558 0 01-3.674-.82s-4.68-2.183-9.346-4.447a341.015 341.015 0 01-6.551-3.246c-3.373-1.745-7.578-3.906-7.578-9.393 0-21.555-7.486-31.4-15.4-41.83-3.198-4.205-6.468-8.537-9.056-13.527a176.603 176.603 0 00-7.22 6.285c-18.507 17.039-52.793 35.302-80.379 38.698v10.95h.578c4.782 0 8.664 3.882 8.664 8.665a8.66 8.66 0 01-8.664 8.664H27.147a8.646 8.646 0 01-8.04-5.441L.623 368.102a8.652 8.652 0 011.918-9.345l16.969-16.97c2.762-8.78 14.083-43.978 29.365-81.211 24.098-58.717 46.38-94.529 66.227-106.44 21.626-12.972 80.31-26.894 117.057-19.547 30.659 6.134 45.18-.717 60.556-7.96 11.159-5.257 22.7-10.697 39.404-10.697 14.844 0 25.09 6.804 33.315 12.268 5.026 3.34 9.369 6.214 12.892 6.214 7.359 0 12.442-1.87 18.32-4.042 5.66-2.092 11.968-4.412 20.447-5.036 2.773-3.396 7.14-6.734 13.99-8.976 8.11-2.645 15.816-1.074 21.707 4.412 2.402 2.23 4.239 4.886 5.59 7.694 48.807 20.817 50.76 43.748 51.813 56.12.057.716.116 1.373.172 1.963 2.395 2.787 11.313 8.898 19.977 13.623zm-18.725 24.56l4.17-12.903c-21.06-12.465-22.03-19.038-22.422-21.648-.197-1.352-.314-2.692-.44-4.125-.773-9.253-1.951-22.838-33.511-38.097a8.66 8.66 0 01-9.255 3.535 8.677 8.677 0 01-6.307-10.512c.265-1.272-.578-5.487-2.946-7.6-.786-.706-1.848-1.387-4.436-.544-2.587.842-5.857 2.368-6.758 4.817-1.143 3.13.958 8.12 2.148 10.05 2.588 4.03 1.398 9.357-2.633 11.945a8.542 8.542 0 01-4.644 1.363 8.698 8.698 0 01-7.335-4.008c-.566-.866-3.94-6.377-4.923-13.458-3.338.762-6.387 1.87-9.68 3.085-6.493 2.402-13.863 5.117-24.318 5.117-8.756 0-15.721-4.632-22.468-9.103-7.266-4.828-14.126-9.38-23.74-9.38-12.822 0-21.717 4.195-32.022 9.046-16.438 7.751-35.072 16.53-71.333 9.276-33.376-6.677-87.9 7.313-104.743 17.42-33.663 20.194-75.366 136.73-88.592 179.936a8.7 8.7 0 01-2.16 3.592l-14.442 14.437 14.186 35.452h3.95v-19.06c0-4.783 3.883-8.665 8.665-8.665 19.142 0 54.78-13.931 77.306-34.667 39.577-36.447 73.367-39.265 116.768-39.265.728 0 1.432.105 2.115.277a95.987 95.987 0 011.847-8.815c5.59-21.406 16.81-34.217 17.282-34.748 3.177-3.581 8.653-3.905 12.235-.74 3.569 3.177 3.905 8.63.75 12.21-1.571 1.802-35.962 42.513.808 100.538a8.55 8.55 0 011.352 4.632v21.199c0 1.895.74 3.683 2.08 5.024a7.093 7.093 0 005.036 2.079h22.677l8.387-75.457a8.636 8.636 0 015.175-7.001c.415-.185 43.78-19.475 60.082-59.978a8.704 8.704 0 016.157-5.221c7.625-1.722 15.399-5.28 18.99-8.363-5.36-4.401-9.241-10.582-10.673-17.745l-3.835-19.187c-.947-4.691 2.103-9.254 6.793-10.188 4.69-.936 9.253 2.103 10.188 6.792l3.834 19.178c1.26 6.273 6.815 10.823 13.205 10.823h33.558c10.005-9.242 24.26-9.242 31.48-9.242 11.463-.002 18.626-1.203 22.392-2.103zm-65.708 177.692h17.986c-4.876-7.266-9.461-16.322-14.474-26.246-8.4-16.634-17.931-35.477-31.56-51.985a8.673 8.673 0 01-1.987-5.614c.219-20.11-1.767-44.44-5.417-55.102-5.788 3.546-12.2 5.799-16.588 7.07-8.803 19.465-22.504 34.263-35.27 44.81.175.415.325.854.429 1.306.116.46 12.129 48.299 49.292 58.338a8.716 8.716 0 012.935 1.43l34.654 25.993zm-225.243-38.468c8.086-15.157 16.382-30.751 18.852-45.862-32.045.013-57.043 1.56-83.36 18.057 1.897 4.562 5.014 8.687 8.585 13.389 7.89 10.373 17.582 23.138 18.805 47.154 3.074 1.537 7.615 3.72 11.887 5.73h8.78c2.404-12.141 9.255-24.998 16.45-38.468z"
                      fill="#0F421E"/>
            </g>
        </g>
    </g>
</svg>
